# xmcd CD database file
# Copyright (C) 1993-1996 Ti Kan
#
# Track frame offsets:
#  150
#  10090
#  20465
#  33332
#  47987
#  62257
#  75122
#  84680
#  101032
#  113180
#  128595
#  140875
#  153810
#  170477
#  182200
#  198225
#  210495
#  222947
#  233650
#  245642
#  258162
#  272190
#
# Disc length: 3845 seconds
#
# Revision: 6
# Processed by: cddbd v1.5.2PL0 Copyright (c) Steve Scherf et al.
# Submitted via: Advanced CD Ripper Pro 2.0
#
DISCID=260f0316
DTITLE=Merle Haggard - For The Record - Disc 1
DYEAR=1999
DGENRE=Country
TTITLE0=Mama Tried
TTITLE1=Sing A Sad Song
TTITLE2=Swinging Doors
TTITLE3=I'm A Lonesome Fugitive
TTITLE4=Branded Man
TTITLE5=Sing Me Back Home
TTITLE6=The Legend Of Bonnie And Clyde
TTITLE7=Hungry Eyes
TTITLE8=Workin' Man Blues
TTITLE9=Silver Wings (Duet With Jewel)
TTITLE10=Okie From Muskogee
TTITLE11=The Fightin' Side Of Me
TTITLE12=Daddy Frank
TTITLE13=Carolyn
TTITLE14=It's Not Love (But It's Not Bad)
TTITLE15=Everybody's Had The Blues
TTITLE16=If We Make It Through December
TTITLE17=Old Man From The Mountain
TTITLE18=Things Aren't Funny Anymore
TTITLE19=Movin' On (Duet With Brooks and Dunn)
TTITLE20=Always Wanting You
TTITLE21=It's All In The Movies
EXTD=
EXTT0=
EXTT1=
EXTT2=
EXTT3=
EXTT4=
EXTT5=
EXTT6=
EXTT7=
EXTT8=
EXTT9=
EXTT10=
EXTT11=
EXTT12=
EXTT13=
EXTT14=
EXTT15=
EXTT16=
EXTT17=
EXTT18=
EXTT19=
EXTT20=
EXTT21=
PLAYORDER=
